<?xml version="1.0" encoding="UTF-8" standalone="no"?>
<!-- Created with Inkscape (http://www.inkscape.org/) -->

<svg
   xmlns:dc="http://purl.org/dc/elements/1.1/"
   xmlns:cc="http://creativecommons.org/ns#"
   xmlns:rdf="http://www.w3.org/1999/02/22-rdf-syntax-ns#"
   xmlns:svg="http://www.w3.org/2000/svg"
   xmlns="http://www.w3.org/2000/svg"
   xmlns:sodipodi="http://sodipodi.sourceforge.net/DTD/sodipodi-0.dtd"
   xmlns:inkscape="http://www.inkscape.org/namespaces/inkscape"
   version="1.1"
   height="512"
   width="512"
   id="svg195"
   sodipodi:docname="logo.svg"
   inkscape:version="0.92.2 5c3e80d, 2017-08-06">
  <metadata
     id="metadata199">
    <rdf:RDF>
      <cc:Work
         rdf:about="">
        <dc:format>image/svg+xml</dc:format>
        <dc:type
           rdf:resource="http://purl.org/dc/dcmitype/StillImage" />
        <dc:title></dc:title>
      </cc:Work>
    </rdf:RDF>
  </metadata>
  <sodipodi:namedview
     pagecolor="#ffffff"
     bordercolor="#666666"
     borderopacity="1"
     objecttolerance="10"
     gridtolerance="10"
     guidetolerance="10"
     inkscape:pageopacity="0"
     inkscape:pageshadow="2"
     inkscape:window-width="3020"
     inkscape:window-height="1513"
     id="namedview197"
     showgrid="false"
     inkscape:showpageshadow="true"
     inkscape:zoom="1.6850251"
     inkscape:cx="299.17762"
     inkscape:cy="240.79481"
     inkscape:window-x="2142"
     inkscape:window-y="225"
     inkscape:window-maximized="0"
     inkscape:current-layer="svg195" />
  <defs
     id="SvgjsDefs1724" />
  <g
     id="SvgjsG1726"
     rel="mainfill"
     name="symbol"
     transform="matrix(164.47157,0,0,164.47157,-155.09669,-155.15981)"
     style="fill:#4c4c4c;fill-opacity:1">
    <g
       id="g192"
       style="fill:#4c4c4c;fill-opacity:1">
      <path
         d="m 1.909,1.677 c 0,0.04 0,0.076 0,0.11 0.143,-0.124 0.295,-0.234 0.446,-0.327 0,-0.044 0,-0.092 0,-0.137 C 2.204,1.422 2.052,1.542 1.909,1.677 Z"
         style="fill:#4c4c4c;fill-opacity:1"
         id="path6"
         inkscape:connector-curvature="0" />
      <path
         d="M 3.107,1.299 C 2.962,1.242 2.814,1.216 2.661,1.219 2.659,1.27 2.659,1.319 2.659,1.369 c 0.155,0.002 0.304,0.035 0.448,0.093 0,-0.056 0,-0.109 0,-0.163 z"
         style="fill:#4c4c4c;fill-opacity:1"
         id="path8"
         inkscape:connector-curvature="0" />
      <path
         d="M 2.629,1.225 C 2.545,1.245 2.465,1.272 2.382,1.31 c 0,0.046 0,0.095 0,0.142 0.083,-0.033 0.163,-0.057 0.247,-0.074 0,-0.052 0,-0.105 0,-0.153 z"
         style="fill:#4c4c4c;fill-opacity:1"
         id="path10"
         inkscape:connector-curvature="0" />
      <path
         d="m 1.909,1.946 c 0.145,-0.11 0.295,-0.206 0.446,-0.29 0,-0.045 0,-0.091 0,-0.137 -0.151,0.09 -0.304,0.197 -0.446,0.316 0,0.039 0,0.075 0,0.111 z"
         style="fill:#4c4c4c;fill-opacity:1"
         id="path12"
         inkscape:connector-curvature="0" />
      <path
         d="M 3.107,1.532 C 2.963,1.472 2.812,1.438 2.659,1.434 c 0,0.05 0,0.102 0,0.151 0.153,0.013 0.304,0.049 0.448,0.107 0,-0.053 0,-0.107 0,-0.16 z"
         style="fill:#4c4c4c;fill-opacity:1"
         id="path14"
         inkscape:connector-curvature="0" />
      <path
         d="m 2.629,1.438 c -0.084,0.017 -0.164,0.041 -0.247,0.07 0,0.048 0,0.095 0,0.144 0.083,-0.027 0.163,-0.049 0.247,-0.061 0,-0.051 0,-0.101 0,-0.153 z"
         style="fill:#4c4c4c;fill-opacity:1"
         id="path16"
         inkscape:connector-curvature="0" />
      <path
         d="M 1.909,2.104 C 2.054,2.012 2.204,1.925 2.357,1.857 c 0,-0.048 0,-0.092 -0.002,-0.14 -0.151,0.077 -0.301,0.172 -0.446,0.276 0,0.039 0,0.075 0,0.111 z"
         style="fill:#4c4c4c;fill-opacity:1"
         id="path18"
         inkscape:connector-curvature="0" />
      <path
         d="M 3.107,1.765 C 2.963,1.701 2.812,1.663 2.659,1.651 c 0,0.05 0,0.102 0,0.151 0.153,0.018 0.302,0.059 0.448,0.123 0,-0.053 0,-0.107 0,-0.16 z"
         style="fill:#4c4c4c;fill-opacity:1"
         id="path20"
         inkscape:connector-curvature="0" />
      <path
         d="m 2.629,1.654 c -0.084,0.012 -0.164,0.03 -0.247,0.054 0,0.047 0,0.095 0,0.143 0.083,-0.021 0.163,-0.037 0.247,-0.045 0,-0.051 0,-0.102 0,-0.152 z"
         style="fill:#4c4c4c;fill-opacity:1"
         id="path22"
         inkscape:connector-curvature="0" />
      <path
         d="M 1.909,2.262 C 2.054,2.185 2.204,2.114 2.357,2.053 c 0,-0.045 0,-0.093 0,-0.137 -0.153,0.066 -0.303,0.146 -0.448,0.235 0,0.038 0,0.075 0,0.111 z"
         style="fill:#4c4c4c;fill-opacity:1"
         id="path24"
         inkscape:connector-curvature="0" />
      <path
         d="M 3.107,1.996 C 2.961,1.931 2.812,1.886 2.659,1.865 c 0,0.051 0,0.102 0,0.151 0.153,0.027 0.302,0.074 0.448,0.141 0,-0.053 0,-0.107 0,-0.161 z"
         style="fill:#4c4c4c;fill-opacity:1"
         id="path26"
         inkscape:connector-curvature="0" />
      <path
         d="M 2.629,1.868 C 2.545,1.874 2.465,1.889 2.382,1.906 c 0,0.049 0,0.097 0,0.142 0.083,-0.013 0.163,-0.024 0.247,-0.027 0,-0.051 0,-0.102 0,-0.153 z"
         style="fill:#4c4c4c;fill-opacity:1"
         id="path28"
         inkscape:connector-curvature="0" />
      <path
         d="M 1.909,2.423 C 2.054,2.356 2.204,2.298 2.357,2.25 c 0,-0.045 0,-0.093 0,-0.137 -0.153,0.056 -0.303,0.121 -0.448,0.196 0,0.039 0,0.075 0,0.114 z"
         style="fill:#4c4c4c;fill-opacity:1"
         id="path30"
         inkscape:connector-curvature="0" />
      <path
         d="M 3.107,2.229 C 2.961,2.16 2.812,2.113 2.659,2.083 c 0,0.051 0,0.102 0,0.151 0.153,0.034 0.302,0.086 0.448,0.156 0,-0.054 0,-0.108 0,-0.161 z"
         style="fill:#4c4c4c;fill-opacity:1"
         id="path32"
         inkscape:connector-curvature="0" />
      <path
         d="M 2.629,2.083 C 2.545,2.086 2.465,2.095 2.382,2.106 c 0,0.048 0,0.096 0,0.14 0.083,-0.009 0.163,-0.012 0.247,-0.012 0,-0.049 0,-0.1 0,-0.151 z"
         style="fill:#4c4c4c;fill-opacity:1"
         id="path34"
         inkscape:connector-curvature="0" />
      <path
         d="M 1.909,2.577 C 2.055,2.529 2.207,2.484 2.357,2.446 c 0,-0.045 0,-0.09 0,-0.138 -0.15,0.045 -0.304,0.099 -0.448,0.158 0,0.04 0,0.076 0,0.111 z"
         style="fill:#4c4c4c;fill-opacity:1"
         id="path36"
         inkscape:connector-curvature="0" />
      <path
         d="M 3.107,2.458 C 2.961,2.39 2.81,2.336 2.659,2.298 c 0,0.05 -0.002,0.101 -0.002,0.152 0.152,0.041 0.304,0.1 0.45,0.172 0,-0.053 0,-0.106 0,-0.164 z"
         style="fill:#4c4c4c;fill-opacity:1"
         id="path38"
         inkscape:connector-curvature="0" />
      <path
         d="m 2.629,2.298 c -0.084,-0.003 -0.164,0 -0.247,0.009 0,0.045 0,0.092 0,0.14 0.083,-0.004 0.163,-0.004 0.247,0.003 0,-0.052 0,-0.102 0,-0.152 z"
         style="fill:#4c4c4c;fill-opacity:1"
         id="path40"
         inkscape:connector-curvature="0" />
      <path
         d="M 1.909,2.738 C 2.057,2.702 2.207,2.669 2.357,2.646 c 0,-0.048 0,-0.093 0,-0.141 -0.15,0.036 -0.302,0.075 -0.448,0.122 0,0.037 0,0.073 0,0.111 z"
         style="fill:#4c4c4c;fill-opacity:1"
         id="path42"
         inkscape:connector-curvature="0" />
      <path
         d="M 3.107,2.69 C 2.961,2.619 2.807,2.558 2.657,2.515 c 0,0.05 0,0.101 0,0.151 0.15,0.051 0.301,0.112 0.45,0.188 0,-0.053 0,-0.107 0,-0.164 z"
         style="fill:#4c4c4c;fill-opacity:1"
         id="path44"
         inkscape:connector-curvature="0" />
      <path
         d="M 2.629,2.512 C 2.545,2.506 2.465,2.503 2.382,2.506 c 0,0.044 0,0.093 0,0.141 0.083,0.002 0.163,0.009 0.244,0.018 0,-0.052 0,-0.103 0.003,-0.153 z"
         style="fill:#4c4c4c;fill-opacity:1"
         id="path46"
         inkscape:connector-curvature="0" />
      <path
         d="M 1.909,2.896 C 2.057,2.875 2.207,2.857 2.357,2.841 c 0,-0.047 0,-0.092 0,-0.14 -0.15,0.024 -0.3,0.052 -0.448,0.081 0,0.039 0,0.075 0,0.114 z"
         style="fill:#4c4c4c;fill-opacity:1"
         id="path48"
         inkscape:connector-curvature="0" />
      <path
         d="m 3.107,2.923 c -0.149,-0.074 -0.3,-0.14 -0.45,-0.19 0,0.047 0,0.099 0,0.149 0.15,0.059 0.299,0.127 0.45,0.205 0,-0.054 0,-0.108 0,-0.164 z"
         style="fill:#4c4c4c;fill-opacity:1"
         id="path50"
         inkscape:connector-curvature="0" />
      <path
         d="M 2.626,2.727 C 2.545,2.714 2.465,2.709 2.382,2.702 c 0,0.048 0,0.097 0,0.144 0.083,0.009 0.163,0.019 0.244,0.032 0,-0.05 0,-0.102 0,-0.151 z"
         style="fill:#4c4c4c;fill-opacity:1"
         id="path52"
         inkscape:connector-curvature="0" />
      <path
         d="m 1.909,3.054 c 0.148,-0.005 0.3,-0.009 0.448,-0.015 0,-0.044 0,-0.092 0,-0.137 -0.15,0.012 -0.3,0.027 -0.448,0.041 0,0.036 0,0.073 0,0.111 z"
         style="fill:#4c4c4c;fill-opacity:1"
         id="path54"
         inkscape:connector-curvature="0" />
      <path
         d="M 3.107,3.155 C 2.956,3.078 2.807,3.006 2.657,2.947 c 0,0.05 0,0.102 0,0.151 0.15,0.065 0.299,0.14 0.45,0.221 0,-0.056 0,-0.11 0,-0.164 z"
         style="fill:#4c4c4c;fill-opacity:1"
         id="path56"
         inkscape:connector-curvature="0" />
      <path
         d="M 2.626,2.94 C 2.545,2.926 2.465,2.914 2.382,2.902 c 0,0.048 0,0.095 0,0.143 0.083,0.013 0.163,0.03 0.244,0.048 0,-0.051 0,-0.101 0,-0.153 z"
         style="fill:#4c4c4c;fill-opacity:1"
         id="path58"
         inkscape:connector-curvature="0" />
      <path
         d="m 1.909,3.213 c 0.148,0.009 0.3,0.018 0.448,0.022 0,-0.045 0,-0.092 0,-0.137 -0.148,0 -0.3,0.004 -0.448,0.004 0,0.035 0,0.071 0,0.111 z"
         style="fill:#4c4c4c;fill-opacity:1"
         id="path60"
         inkscape:connector-curvature="0" />
      <path
         d="m 2.657,3.313 c 0.15,0.074 0.299,0.154 0.45,0.238 0,-0.057 0,-0.11 0,-0.164 -0.151,-0.08 -0.3,-0.154 -0.45,-0.224 0,0.052 0,0.1 0,0.15 z"
         style="fill:#4c4c4c;fill-opacity:1"
         id="path62"
         inkscape:connector-curvature="0" />
      <path
         d="M 2.626,3.155 C 2.545,3.135 2.465,3.116 2.382,3.103 2.384,3.15 2.384,3.198 2.384,3.246 c 0.081,0.018 0.161,0.038 0.242,0.062 0,-0.052 0,-0.102 0,-0.153 z"
         style="fill:#4c4c4c;fill-opacity:1"
         id="path64"
         inkscape:connector-curvature="0" />
      <path
         d="m 1.909,3.37 c 0.148,0.048 0.3,0.102 0.448,0.155 0,-0.078 0,-0.152 0,-0.229 -0.148,-0.009 -0.3,-0.021 -0.448,-0.04 0,0.04 0,0.076 0,0.114 z"
         style="fill:#4c4c4c;fill-opacity:1"
         id="path66"
         inkscape:connector-curvature="0" />
      <path
         d="M 3.107,3.62 C 2.956,3.537 2.807,3.456 2.657,3.379 c 0,0.084 0,0.167 0,0.25 0.148,0.052 0.299,0.104 0.45,0.152 0,-0.051 0,-0.107 0,-0.161 z"
         style="fill:#4c4c4c;fill-opacity:1"
         id="path68"
         inkscape:connector-curvature="0" />
      <path
         d="m 2.626,3.617 c 0,-0.083 0,-0.166 0,-0.247 C 2.545,3.346 2.465,3.322 2.384,3.301 c 0,0.078 0,0.155 0,0.233 0.081,0.028 0.161,0.057 0.242,0.083 z"
         style="fill:#4c4c4c;fill-opacity:1"
         id="path70"
         inkscape:connector-curvature="0" />
      <path
         d="M 3.496,1.893 C 3.383,1.967 3.271,2.057 3.162,2.157 c 0,0.027 0,0.057 0,0.084 0.109,-0.093 0.221,-0.176 0.334,-0.245 0,-0.036 0,-0.071 0,-0.103 z"
         style="fill:#4c4c4c;fill-opacity:1"
         id="path72"
         inkscape:connector-curvature="0" />
      <path
         d="m 3.724,1.925 c 0.115,0.003 0.228,0.026 0.332,0.071 0,-0.041 0,-0.08 0,-0.122 C 3.953,1.832 3.839,1.812 3.724,1.814 c 0,0.037 0,0.075 0,0.111 z"
         style="fill:#4c4c4c;fill-opacity:1"
         id="path74"
         inkscape:connector-curvature="0" />
      <path
         d="M 3.516,1.987 C 3.578,1.964 3.641,1.946 3.702,1.93 c 0,-0.038 0,-0.074 0,-0.112 -0.061,0.014 -0.125,0.038 -0.186,0.066 0,0.032 0,0.067 0,0.103 z"
         style="fill:#4c4c4c;fill-opacity:1"
         id="path76"
         inkscape:connector-curvature="0" />
      <path
         d="m 3.496,2.038 c -0.113,0.068 -0.225,0.15 -0.334,0.238 0,0.027 0,0.055 0,0.08 0.109,-0.08 0.221,-0.154 0.334,-0.214 0,-0.036 0,-0.068 0,-0.104 z"
         style="fill:#4c4c4c;fill-opacity:1"
         id="path78"
         inkscape:connector-curvature="0" />
      <path
         d="m 3.724,2.089 c 0.115,0.006 0.225,0.035 0.332,0.08 0,-0.042 0,-0.08 0,-0.121 C 3.951,2.003 3.839,1.979 3.724,1.976 c 0,0.039 0,0.074 0,0.113 z"
         style="fill:#4c4c4c;fill-opacity:1"
         id="path80"
         inkscape:connector-curvature="0" />
      <path
         d="m 3.518,2.136 c 0.06,-0.021 0.123,-0.032 0.184,-0.045 0,-0.038 0,-0.074 0,-0.112 -0.061,0.012 -0.125,0.029 -0.186,0.053 0,0.033 0.002,0.07 0.002,0.104 z"
         style="fill:#4c4c4c;fill-opacity:1"
         id="path82"
         inkscape:connector-curvature="0" />
      <path
         d="M 3.496,2.188 C 3.383,2.243 3.271,2.315 3.162,2.393 c 0,0.03 0,0.058 0,0.083 0.109,-0.07 0.221,-0.134 0.334,-0.188 0,-0.033 0,-0.067 0,-0.1 z"
         style="fill:#4c4c4c;fill-opacity:1"
         id="path84"
         inkscape:connector-curvature="0" />
      <path
         d="m 3.724,2.25 c 0.113,0.015 0.225,0.045 0.332,0.092 0,-0.038 0,-0.08 0,-0.121 C 3.948,2.176 3.837,2.145 3.724,2.136 c 0,0.04 0,0.074 0,0.114 z"
         style="fill:#4c4c4c;fill-opacity:1"
         id="path86"
         inkscape:connector-curvature="0" />
      <path
         d="M 3.518,2.286 C 3.578,2.27 3.641,2.259 3.702,2.253 c 0,-0.039 0,-0.077 0,-0.113 -0.061,0.008 -0.125,0.02 -0.184,0.041 0,0.033 0,0.069 0,0.105 z"
         style="fill:#4c4c4c;fill-opacity:1"
         id="path88"
         inkscape:connector-curvature="0" />
      <path
         d="m 3.496,2.333 c -0.113,0.051 -0.225,0.11 -0.334,0.179 0,0.026 0,0.058 0,0.083 0.109,-0.059 0.221,-0.112 0.334,-0.157 0,-0.037 0,-0.069 0,-0.105 z"
         style="fill:#4c4c4c;fill-opacity:1"
         id="path90"
         inkscape:connector-curvature="0" />
      <path
         d="m 3.724,2.41 c 0.113,0.021 0.225,0.057 0.332,0.105 0,-0.04 0,-0.081 0,-0.119 C 3.948,2.348 3.837,2.315 3.724,2.298 c 0,0.038 0,0.076 0,0.112 z"
         style="fill:#4c4c4c;fill-opacity:1"
         id="path92"
         inkscape:connector-curvature="0" />
      <path
         d="m 3.518,2.435 c 0.06,-0.012 0.123,-0.018 0.184,-0.021 0,-0.04 0,-0.078 0,-0.116 -0.061,0.006 -0.125,0.017 -0.184,0.033 0,0.032 0,0.067 0,0.104 z"
         style="fill:#4c4c4c;fill-opacity:1"
         id="path94"
         inkscape:connector-curvature="0" />
      <path
         d="M 3.496,2.482 C 3.383,2.524 3.271,2.574 3.162,2.631 c 0,0.026 0,0.054 0,0.08 0.111,-0.047 0.221,-0.089 0.334,-0.125 0,-0.036 0,-0.07 0,-0.104 z"
         style="fill:#4c4c4c;fill-opacity:1"
         id="path96"
         inkscape:connector-curvature="0" />
      <path
         d="m 3.724,2.574 c 0.113,0.025 0.224,0.063 0.332,0.116 0,-0.042 0,-0.08 0,-0.121 C 3.948,2.518 3.837,2.482 3.724,2.458 c 0,0.039 0,0.078 0,0.116 z"
         style="fill:#4c4c4c;fill-opacity:1"
         id="path98"
         inkscape:connector-curvature="0" />
      <path
         d="M 3.518,2.583 C 3.578,2.577 3.641,2.574 3.7,2.574 3.702,2.536 3.702,2.497 3.702,2.458 3.641,2.461 3.577,2.467 3.518,2.476 c 0,0.036 0,0.072 0,0.107 z"
         style="fill:#4c4c4c;fill-opacity:1"
         id="path100"
         inkscape:connector-curvature="0" />
      <path
         d="M 3.498,2.628 C 3.383,2.664 3.273,2.702 3.162,2.747 c 0,0.027 0,0.057 0,0.084 0.111,-0.036 0.223,-0.072 0.336,-0.099 0,-0.032 0,-0.068 0,-0.104 z"
         style="fill:#4c4c4c;fill-opacity:1"
         id="path102"
         inkscape:connector-curvature="0" />
      <path
         d="m 3.724,2.735 c 0.113,0.03 0.225,0.074 0.332,0.129 0,-0.043 0,-0.081 0,-0.123 C 3.948,2.69 3.837,2.648 3.724,2.622 c 0,0.035 0,0.074 0,0.113 z"
         style="fill:#4c4c4c;fill-opacity:1"
         id="path104"
         inkscape:connector-curvature="0" />
      <path
         d="m 3.518,2.732 c 0.06,-0.003 0.123,-0.003 0.182,0 0,-0.036 0,-0.075 0,-0.113 -0.059,0 -0.122,0.003 -0.182,0.009 0,0.033 0,0.068 0,0.104 z"
         style="fill:#4c4c4c;fill-opacity:1"
         id="path106"
         inkscape:connector-curvature="0" />
      <path
         d="M 3.498,2.776 C 3.385,2.8 3.273,2.831 3.162,2.866 c 0,0.027 0,0.054 0,0.084 0.111,-0.027 0.225,-0.052 0.336,-0.068 0,-0.036 0,-0.072 0,-0.106 z"
         style="fill:#4c4c4c;fill-opacity:1"
         id="path108"
         inkscape:connector-curvature="0" />
      <path
         d="m 3.724,2.896 c 0.113,0.038 0.225,0.087 0.332,0.14 0,-0.041 0,-0.08 0,-0.122 C 3.948,2.86 3.837,2.815 3.724,2.783 c 0,0.038 0,0.074 0,0.113 z"
         style="fill:#4c4c4c;fill-opacity:1"
         id="path110"
         inkscape:connector-curvature="0" />
      <path
         d="m 3.518,2.882 c 0.06,0 0.123,0.005 0.182,0.012 0,-0.039 0,-0.074 0,-0.114 C 3.641,2.774 3.577,2.774 3.518,2.774 c 0,0.036 0,0.072 0,0.108 z"
         style="fill:#4c4c4c;fill-opacity:1"
         id="path112"
         inkscape:connector-curvature="0" />
      <path
         d="M 3.498,2.923 C 3.387,2.94 3.273,2.962 3.162,2.985 c 0,0.027 0,0.054 0,0.081 0.111,-0.013 0.225,-0.027 0.336,-0.04 0,-0.034 0,-0.067 0,-0.103 z"
         style="fill:#4c4c4c;fill-opacity:1"
         id="path114"
         inkscape:connector-curvature="0" />
      <path
         d="m 3.724,3.058 c 0.111,0.045 0.223,0.095 0.332,0.151 0,-0.039 0,-0.081 0,-0.119 C 3.948,3.033 3.837,2.983 3.724,2.943 c 0,0.04 0,0.075 0,0.115 z"
         style="fill:#4c4c4c;fill-opacity:1"
         id="path116"
         inkscape:connector-curvature="0" />
      <path
         d="M 3.518,3.03 C 3.578,3.036 3.641,3.045 3.7,3.053 3.7,3.015 3.7,2.979 3.7,2.94 3.641,2.932 3.577,2.926 3.518,2.923 c 0,0.036 0,0.072 0,0.107 z"
         style="fill:#4c4c4c;fill-opacity:1"
         id="path118"
         inkscape:connector-curvature="0" />
      <path
         d="M 3.501,3.071 C 3.387,3.081 3.273,3.09 3.162,3.103 c 0,0.025 0,0.056 0,0.083 0.111,-0.004 0.225,-0.006 0.339,-0.013 0,-0.032 0,-0.069 0,-0.102 z"
         style="fill:#4c4c4c;fill-opacity:1"
         id="path120"
         inkscape:connector-curvature="0" />
      <path
         d="m 3.722,3.218 c 0.113,0.051 0.225,0.107 0.334,0.164 0,-0.039 0,-0.081 0,-0.119 -0.109,-0.06 -0.221,-0.11 -0.332,-0.158 0,0.039 0,0.077 -0.002,0.113 z"
         style="fill:#4c4c4c;fill-opacity:1"
         id="path122"
         inkscape:connector-curvature="0" />
      <path
         d="m 3.518,3.18 c 0.059,0.008 0.123,0.02 0.181,0.035 0,-0.038 0,-0.078 0,-0.112 C 3.641,3.09 3.577,3.081 3.518,3.071 c 0,0.036 0,0.073 0,0.109 z"
         style="fill:#4c4c4c;fill-opacity:1"
         id="path124"
         inkscape:connector-curvature="0" />
      <path
         d="M 3.501,3.218 C 3.387,3.222 3.275,3.222 3.162,3.222 c 0,0.025 0,0.053 0,0.079 0.113,0.009 0.225,0.015 0.339,0.021 0,-0.033 0,-0.068 0,-0.104 z"
         style="fill:#4c4c4c;fill-opacity:1"
         id="path126"
         inkscape:connector-curvature="0" />
      <path
         d="m 3.722,3.379 c 0.111,0.057 0.225,0.116 0.334,0.179 0,-0.041 0,-0.081 0,-0.122 C 3.947,3.375 3.833,3.32 3.722,3.266 c 0,0.039 0,0.077 0,0.113 z"
         style="fill:#4c4c4c;fill-opacity:1"
         id="path128"
         inkscape:connector-curvature="0" />
      <path
         d="M 3.518,3.328 C 3.578,3.343 3.641,3.357 3.7,3.373 3.7,3.337 3.7,3.299 3.7,3.26 3.641,3.247 3.577,3.233 3.518,3.222 c 0,0.034 0,0.07 0,0.106 z"
         style="fill:#4c4c4c;fill-opacity:1"
         id="path130"
         inkscape:connector-curvature="0" />
      <path
         d="m 3.162,3.337 c 0,0.029 0,0.057 0,0.083 0.113,0.04 0.225,0.078 0.339,0.117 0,-0.057 0,-0.113 0,-0.171 C 3.387,3.357 3.275,3.35 3.162,3.337 Z"
         style="fill:#4c4c4c;fill-opacity:1"
         id="path132"
         inkscape:connector-curvature="0" />
      <path
         d="m 3.719,3.614 c 0.114,0.039 0.228,0.08 0.337,0.116 0,-0.041 0,-0.081 0,-0.122 C 3.946,3.546 3.833,3.485 3.722,3.43 c 0,0.062 -0.003,0.122 -0.003,0.184 z"
         style="fill:#4c4c4c;fill-opacity:1"
         id="path134"
         inkscape:connector-curvature="0" />
      <path
         d="M 3.518,3.543 C 3.578,3.564 3.639,3.587 3.7,3.608 3.7,3.546 3.7,3.483 3.7,3.42 3.639,3.402 3.577,3.388 3.518,3.37 c 0,0.057 0,0.115 0,0.173 z"
         style="fill:#4c4c4c;fill-opacity:1"
         id="path136"
         inkscape:connector-curvature="0" />
      <path
         d="M 0.943,2.503 C 1.047,2.419 1.162,2.342 1.277,2.279 c 0,-0.033 0,-0.069 0,-0.104 -0.117,0.068 -0.229,0.152 -0.334,0.248 0,0.027 0,0.053 0,0.08 z"
         style="fill:#4c4c4c;fill-opacity:1"
         id="path138"
         inkscape:connector-curvature="0" />
      <path
         d="M 1.837,2.193 C 1.73,2.145 1.619,2.115 1.503,2.113 c 0,0.038 0,0.074 0,0.112 0.116,0.009 0.228,0.039 0.334,0.09 0,-0.042 0,-0.081 0,-0.122 z"
         style="fill:#4c4c4c;fill-opacity:1"
         id="path140"
         inkscape:connector-curvature="0" />
      <path
         d="M 1.481,2.115 C 1.42,2.127 1.356,2.145 1.295,2.169 c 0,0.036 0,0.068 0,0.107 0.061,-0.021 0.125,-0.035 0.184,-0.047 0,-0.036 0,-0.075 0.002,-0.114 z"
         style="fill:#4c4c4c;fill-opacity:1"
         id="path142"
         inkscape:connector-curvature="0" />
      <path
         d="M 0.943,2.622 C 1.05,2.548 1.162,2.484 1.277,2.432 c 0,-0.035 0,-0.071 0,-0.107 -0.115,0.062 -0.229,0.133 -0.334,0.213 0,0.031 0,0.057 0,0.084 z"
         style="fill:#4c4c4c;fill-opacity:1"
         id="path144"
         inkscape:connector-curvature="0" />
      <path
         d="M 1.837,2.365 C 1.73,2.318 1.616,2.286 1.503,2.276 c 0,0.039 0,0.075 0,0.113 0.113,0.016 0.227,0.049 0.334,0.099 0,-0.038 0,-0.081 0,-0.123 z"
         style="fill:#4c4c4c;fill-opacity:1"
         id="path146"
         inkscape:connector-curvature="0" />
      <path
         d="M 1.479,2.276 C 1.42,2.286 1.356,2.3 1.295,2.318 c 0,0.035 0,0.071 0,0.107 0.061,-0.015 0.123,-0.027 0.184,-0.032 0,-0.039 0,-0.078 0,-0.117 z"
         style="fill:#4c4c4c;fill-opacity:1"
         id="path148"
         inkscape:connector-curvature="0" />
      <path
         d="M 0.943,2.741 C 1.05,2.679 1.164,2.625 1.277,2.581 c 0,-0.036 0,-0.072 0,-0.105 -0.115,0.051 -0.227,0.11 -0.334,0.182 0,0.027 0,0.053 0,0.083 z"
         style="fill:#4c4c4c;fill-opacity:1"
         id="path150"
         inkscape:connector-curvature="0" />
      <path
         d="M 1.837,2.538 C 1.73,2.491 1.616,2.455 1.503,2.439 c 0,0.036 0,0.076 0,0.114 0.113,0.021 0.227,0.057 0.334,0.108 0,-0.039 0,-0.08 0,-0.123 z"
         style="fill:#4c4c4c;fill-opacity:1"
         id="path152"
         inkscape:connector-curvature="0" />
      <path
         d="M 1.479,2.439 C 1.418,2.446 1.356,2.455 1.295,2.471 c 0,0.035 0,0.071 0,0.106 0.062,-0.012 0.123,-0.021 0.184,-0.023 0,-0.038 0,-0.075 0,-0.115 z"
         style="fill:#4c4c4c;fill-opacity:1"
         id="path154"
         inkscape:connector-curvature="0" />
      <path
         d="M 0.943,2.857 C 1.051,2.81 1.164,2.766 1.277,2.729 c 0,-0.036 0,-0.072 0,-0.104 -0.113,0.042 -0.226,0.093 -0.334,0.151 0,0.028 0,0.055 0,0.081 z"
         style="fill:#4c4c4c;fill-opacity:1"
         id="path156"
         inkscape:connector-curvature="0" />
      <path
         d="M 1.837,2.714 C 1.728,2.664 1.616,2.625 1.503,2.602 c 0,0.038 0,0.078 0,0.116 0.113,0.023 0.225,0.065 0.334,0.119 0,-0.042 0,-0.083 0,-0.123 z"
         style="fill:#4c4c4c;fill-opacity:1"
         id="path158"
         inkscape:connector-curvature="0" />
      <path
         d="M 1.479,2.602 C 1.418,2.604 1.356,2.61 1.295,2.619 c 0,0.036 0,0.071 0,0.107 0.062,-0.006 0.123,-0.009 0.184,-0.009 0,-0.037 0,-0.077 0,-0.115 z"
         style="fill:#4c4c4c;fill-opacity:1"
         id="path160"
         inkscape:connector-curvature="0" />
      <path
         d="m 0.943,2.977 c 0.11,-0.037 0.221,-0.07 0.334,-0.099 0,-0.036 0,-0.068 0,-0.104 -0.113,0.033 -0.226,0.075 -0.334,0.12 0,0.026 0,0.056 0,0.083 z"
         style="fill:#4c4c4c;fill-opacity:1"
         id="path162"
         inkscape:connector-curvature="0" />
      <path
         d="M 1.837,2.887 C 1.726,2.837 1.616,2.795 1.503,2.766 c 0,0.038 0,0.076 0,0.116 0.111,0.029 0.223,0.074 0.334,0.127 0,-0.041 0,-0.079 0,-0.122 z"
         style="fill:#4c4c4c;fill-opacity:1"
         id="path164"
         inkscape:connector-curvature="0" />
      <path
         d="m 1.479,2.766 c -0.061,-0.003 -0.122,0 -0.184,0.006 0,0.035 0,0.07 0,0.106 0.062,-0.003 0.123,-0.003 0.184,0 0,-0.038 0,-0.074 0,-0.112 z"
         style="fill:#4c4c4c;fill-opacity:1"
         id="path166"
         inkscape:connector-curvature="0" />
      <path
         d="M 0.943,3.096 C 1.052,3.07 1.164,3.049 1.277,3.027 c 0,-0.034 0,-0.067 0,-0.104 -0.113,0.027 -0.224,0.056 -0.334,0.09 0,0.026 0,0.053 0,0.083 z"
         style="fill:#4c4c4c;fill-opacity:1"
         id="path168"
         inkscape:connector-curvature="0" />
      <path
         d="M 1.837,3.06 C 1.726,3.009 1.614,2.962 1.503,2.93 c 0,0.038 0,0.076 -0.002,0.115 0.113,0.036 0.225,0.083 0.336,0.137 0,-0.038 0,-0.079 0,-0.122 z"
         style="fill:#4c4c4c;fill-opacity:1"
         id="path170"
         inkscape:connector-curvature="0" />
      <path
         d="M 1.479,2.926 C 1.418,2.923 1.356,2.92 1.295,2.923 c 0,0.033 0,0.069 0,0.104 0.062,0.004 0.123,0.01 0.184,0.016 0,-0.039 0,-0.078 0,-0.117 z"
         style="fill:#4c4c4c;fill-opacity:1"
         id="path172"
         inkscape:connector-curvature="0" />
      <path
         d="M 0.943,3.213 C 1.053,3.2 1.164,3.188 1.277,3.177 c 0,-0.033 0,-0.069 0,-0.105 -0.113,0.018 -0.224,0.039 -0.334,0.056 0,0.03 0,0.058 0,0.085 z"
         style="fill:#4c4c4c;fill-opacity:1"
         id="path174"
         inkscape:connector-curvature="0" />
      <path
         d="M 1.837,3.235 C 1.726,3.18 1.614,3.132 1.501,3.093 c 0,0.039 0,0.077 0,0.113 0.113,0.045 0.225,0.095 0.336,0.148 0,-0.038 0,-0.08 0,-0.119 z"
         style="fill:#4c4c4c;fill-opacity:1"
         id="path176"
         inkscape:connector-curvature="0" />
      <path
         d="M 1.479,3.09 C 1.418,3.081 1.356,3.075 1.295,3.071 c 0,0.036 0,0.072 0,0.108 0.062,0.006 0.123,0.015 0.184,0.023 0,-0.038 0,-0.077 0,-0.112 z"
         style="fill:#4c4c4c;fill-opacity:1"
         id="path178"
         inkscape:connector-curvature="0" />
      <path
         d="m 0.943,3.332 c 0.109,0 0.221,-0.004 0.334,-0.007 0,-0.033 0,-0.069 0,-0.104 -0.113,0.009 -0.224,0.017 -0.334,0.026 0,0.027 0,0.058 0,0.085 z"
         style="fill:#4c4c4c;fill-opacity:1"
         id="path180"
         inkscape:connector-curvature="0" />
      <path
         d="M 1.837,3.408 C 1.726,3.353 1.614,3.301 1.501,3.256 c 0,0.04 0,0.076 0,0.114 0.113,0.05 0.225,0.104 0.336,0.158 0,-0.039 0,-0.081 0,-0.12 z"
         style="fill:#4c4c4c;fill-opacity:1"
         id="path182"
         inkscape:connector-curvature="0" />
      <path
         d="M 1.479,3.251 C 1.418,3.242 1.356,3.23 1.295,3.224 c 0,0.036 0,0.072 0,0.108 0.062,0.009 0.123,0.021 0.184,0.034 0,-0.038 0,-0.077 0,-0.115 z"
         style="fill:#4c4c4c;fill-opacity:1"
         id="path184"
         inkscape:connector-curvature="0" />
      <path
         d="m 0.943,3.451 c 0.11,0.029 0.223,0.059 0.334,0.092 0,-0.058 0,-0.113 0,-0.173 -0.111,0 -0.225,0 -0.334,-0.004 0,0.028 0,0.054 0,0.085 z"
         style="fill:#4c4c4c;fill-opacity:1"
         id="path186"
         inkscape:connector-curvature="0" />
      <path
         d="m 1.501,3.608 c 0.111,0.033 0.223,0.062 0.336,0.095 0,-0.041 0,-0.08 0,-0.121 C 1.724,3.525 1.614,3.472 1.501,3.42 c 0,0.063 0,0.126 0,0.188 z"
         style="fill:#4c4c4c;fill-opacity:1"
         id="path188"
         inkscape:connector-curvature="0" />
      <path
         d="m 1.479,3.603 c 0,-0.063 0,-0.126 0,-0.188 C 1.418,3.399 1.356,3.388 1.295,3.373 c 0.003,0.06 0.003,0.116 0.003,0.176 0.058,0.017 0.12,0.035 0.181,0.054 z"
         style="fill:#4c4c4c;fill-opacity:1"
         id="path190"
         inkscape:connector-curvature="0" />
    </g>
  </g>
</svg>
