<?xml version="1.0" encoding="UTF-8" standalone="no"?>
<!-- Created with Inkscape (http://www.inkscape.org/) -->

<svg
   xmlns:dc="http://purl.org/dc/elements/1.1/"
   xmlns:cc="http://creativecommons.org/ns#"
   xmlns:rdf="http://www.w3.org/1999/02/22-rdf-syntax-ns#"
   xmlns:svg="http://www.w3.org/2000/svg"
   xmlns="http://www.w3.org/2000/svg"
   xmlns:sodipodi="http://sodipodi.sourceforge.net/DTD/sodipodi-0.dtd"
   xmlns:inkscape="http://www.inkscape.org/namespaces/inkscape"
   width="512"
   height="512"
   viewBox="0 0 135.46666 135.46667"
   version="1.1"
   id="svg8"
   sodipodi:docname="logo.svg"
   inkscape:version="0.92.4 (5da689c313, 2019-01-14)">
  <defs
     id="defs2" />
  <sodipodi:namedview
     id="base"
     pagecolor="#ffffff"
     bordercolor="#666666"
     borderopacity="1.0"
     inkscape:pageopacity="0.0"
     inkscape:pageshadow="2"
     inkscape:zoom="1.4"
     inkscape:cx="379.97946"
     inkscape:cy="280.40706"
     inkscape:document-units="px"
     inkscape:current-layer="layer4"
     showgrid="false"
     units="px"
     inkscape:showpageshadow="false"
     inkscape:snap-bbox="true"
     showguides="true"
     inkscape:guide-bbox="true"
     inkscape:window-width="1920"
     inkscape:window-height="1021"
     inkscape:window-x="0"
     inkscape:window-y="30"
     inkscape:window-maximized="1">
    <inkscape:grid
       type="xygrid"
       id="grid22" />
  </sodipodi:namedview>
  <metadata
     id="metadata5">
    <rdf:RDF>
      <cc:Work
         rdf:about="">
        <dc:format>image/svg+xml</dc:format>
        <dc:type
           rdf:resource="http://purl.org/dc/dcmitype/StillImage" />
        <dc:title></dc:title>
      </cc:Work>
    </rdf:RDF>
  </metadata>
  <g
     inkscape:groupmode="layer"
     id="layer2"
     inkscape:label="home"
     style="display:inline" />
  <g
     inkscape:groupmode="layer"
     id="layer3"
     inkscape:label="martillo" />
  <g
     inkscape:groupmode="layer"
     id="layer4"
     inkscape:label="martillo 1">
    <path
       style="display:inline;fill:#000000;fill-opacity:1;stroke:none;stroke-width:0.27925813px;stroke-linecap:butt;stroke-linejoin:miter;stroke-opacity:1"
       d="M 25.146463,53.770422 V 16.070571 H 51.675987 V 53.770422 H 25.146463"
       id="path4582"
       inkscape:connector-curvature="0" />
    <path
       style="display:inline;fill:#000000;fill-opacity:1;stroke:none;stroke-width:0.27925813px;stroke-linecap:butt;stroke-linejoin:miter;stroke-opacity:1"
       d="M 0.01322943,77.507365 68.431478,10.485409 135.45344,77.507365 H 114.50907 V 124.98126 H 20.957591 V 77.507365 Z"
       id="path24"
       inkscape:connector-curvature="0" />
    <path
       style="display:inline;fill:#db9b03;fill-opacity:1;stroke:none;stroke-width:1.05546379px;stroke-linecap:butt;stroke-linejoin:miter;stroke-opacity:1"
       d="M 258.63867 66.015625 L 180 142.73633 L 180 77 L 110.87305 76.570312 L 110.00586 211.02344 L 42.269531 277.10938 L 95.041016 277.10938 L 95.041016 456.53906 L 416.95898 456.53906 L 416.95898 277.10938 L 469.73047 277.10938 L 258.63867 66.015625 z "
       transform="scale(0.26458333)"
       id="path26" />
    <path
       style="fill:#000000;fill-opacity:1;stroke:none;stroke-width:0.27925813px;stroke-linecap:butt;stroke-linejoin:miter;stroke-opacity:1"
       d="M 34.920499,122.18867 73.737381,82.534012 c 3.351098,-3.351098 8.657004,3.351098 6.981455,5.305905 L 78.764028,89.794724 89.655096,101.24431 109.48243,81.696238 97.195067,70.246653 95.24026,72.201461 c -3.351098,2.234064 -8.098487,-2.234066 -5.864421,-5.864422 L 90.77213,64.66149 C 82.394385,55.166713 74.01664,45.392677 60.053732,43.996386 c -13.962907,-1.396291 -25.133233,9.21552 -25.133233,9.21552 8.93626,0 37.141334,5.026646 25.133233,17.314006 l -36.30356,34.907268 v 16.75549 z"
       id="path4587"
       inkscape:connector-curvature="0"
       sodipodi:nodetypes="ccccccccccsccccc" />
    <path
       style="fill:#ffffff;fill-opacity:1;stroke:none;stroke-width:0.27925813px;stroke-linecap:butt;stroke-linejoin:miter;stroke-opacity:1"
       d="M 28.776819,121.63016 70.665542,79.182914 c 5.305905,-5.305905 16.476231,-0.558517 14.521424,10.053294 l 4.747389,5.305904 12.566615,-12.566617 -5.585161,-5.305904 C 87.979547,79.741431 81.556611,70.805169 85.186966,64.940748 76.809222,55.445971 68.430951,49.585891 62.646843,48.883405 50.000438,47.347484 47.487115,50.419324 47.487115,50.419324 c 13.962908,1.954807 27.3673,10.332552 16.196974,22.899169 L 25.146463,110.73908 v 10.89108 z"
       id="path4587-3"
       inkscape:connector-curvature="0"
       sodipodi:nodetypes="cccccccsccccc" />
  </g>
</svg>
